<svg id="ICON" xmlns="http://www.w3.org/2000/svg" viewBox="0 0 512 512"><defs><style>.cls-1{fill:#8eca94;}.cls-2{fill:#dab977;}.cls-3{fill:#dc565e;}.cls-4{fill:#b14b5a;}.cls-5{fill:#67ab65;}.cls-6{fill:#cf6b58;}.cls-7{fill:#d1c8c7;}.cls-8{fill:none;}.cls-9{fill:#484c55;}.cls-10{fill:#383b41;}</style></defs><title>Cooking</title><circle class="cls-1" cx="70.61" cy="165.53" r="30.26"/><circle class="cls-1" cx="80.41" cy="218.92" r="30.26"/><circle class="cls-1" cx="120.02" cy="184.21" r="30.26"/><circle class="cls-1" cx="106.8" cy="257.54" r="30.26"/><circle class="cls-1" cx="150.98" cy="219.72" r="30.26"/><circle class="cls-1" cx="142.91" cy="249.5" r="30.26"/><circle class="cls-1" cx="122.28" cy="219.32" r="30.26"/><rect class="cls-2" x="106.52" y="143.49" width="5.97" height="138.3" transform="translate(-114.05 127.6) rotate(-41.93)"/><circle class="cls-1" cx="270.49" cy="134.19" r="31.41"/><circle class="cls-1" cx="232.54" cy="175.84" r="31.41"/><circle class="cls-1" cx="286.11" cy="186.76" r="31.41"/><circle class="cls-1" cx="217.22" cy="221.92" r="31.41"/><circle class="cls-1" cx="276.24" cy="234.64" r="31.41"/><circle class="cls-1" cx="246.56" cy="246.7" r="31.41"/><circle class="cls-1" cx="258.53" cy="210.69" r="31.41"/><rect class="cls-2" x="252.91" y="124.15" width="6.19" height="143.57" transform="translate(41.28 -44.53) rotate(10.81)"/><circle class="cls-1" cx="428.51" cy="153.22" r="26.54"/><circle class="cls-1" cx="387.79" cy="177.87" r="26.54"/><circle class="cls-1" cx="428.57" cy="199.56" r="26.54"/><circle class="cls-1" cx="364.33" cy="211.53" r="26.54"/><circle class="cls-1" cx="409.1" cy="235.99" r="26.54"/><circle class="cls-1" cx="382.16" cy="238.64" r="26.54"/><circle class="cls-1" cx="400.49" cy="212.33" r="26.54"/><rect class="cls-2" x="399.37" y="139.13" width="5.23" height="121.3" transform="translate(136.31 -162.05) rotate(27.29)"/><circle class="cls-3" cx="412.4" cy="267.67" r="35.94"/><path class="cls-4" d="M448.1,271.83a36,36,0,0,1-39.84,31.55,36.65,36.65,0,0,1-11.81-3.47,36,36,0,0,0,7.82-67.26,36,36,0,0,1,43.83,39.18Z"/><ellipse class="cls-5" cx="404.88" cy="230.1" rx="7.19" ry="19.69" transform="translate(-19.73 421.37) rotate(-53.86)"/><ellipse class="cls-5" cx="426.36" cy="221.41" rx="19.69" ry="7.19" transform="translate(69.58 543.14) rotate(-69.49)"/><ellipse class="cls-5" cx="434.56" cy="237.75" rx="19.69" ry="7.19" transform="translate(-27.76 59.9) rotate(-7.64)"/><path class="cls-6" d="M346,258.69,337.35,247l-7.87-10.57a55.52,55.52,0,0,1,66.3,89.08l-7.89-10.6-8.7-11.69Z"/><path class="cls-7" d="M387.89,314.92,337.35,247a42.33,42.33,0,1,1,50.54,67.91Z"/><path class="cls-6" d="M346,258.69a27.76,27.76,0,1,1,33.15,44.54Z"/><path class="cls-7" d="M354.35,269.86a13.87,13.87,0,1,1,16.56,22.25Z"/><polyline class="cls-8" points="379.19 303.23 370.91 292.11 354.35 269.86 346.04 258.69"/><path class="cls-6" d="M140.52,290l7.73,13.53,7,12.24a59.42,59.42,0,1,1-59-103.17l7,12.28L111,238.44Z"/><path class="cls-7" d="M103.3,224.9l45,78.65A45.29,45.29,0,1,1,103.3,224.9Z"/><path class="cls-6" d="M140.52,290A29.71,29.71,0,1,1,111,238.44Z"/><path class="cls-7" d="M133.13,277.09a14.84,14.84,0,1,1-14.73-25.77Z"/><polyline class="cls-8" points="111.03 238.44 118.4 251.32 133.13 277.09 140.52 290.02"/><path class="cls-6" d="M232.52,305.37,218,311l-13.13,5.11A59.41,59.41,0,1,1,315.6,273.05l-13.18,5.12-14.53,5.66Z"/><path class="cls-7" d="M302.42,278.17,218,311a45.3,45.3,0,1,1,84.43-32.85Z"/><path class="cls-6" d="M232.52,305.37a29.71,29.71,0,1,1,55.37-21.54Z"/><path class="cls-7" d="M246.4,300a14.84,14.84,0,0,1,27.66-10.76Z"/><polyline class="cls-8" points="287.89 283.83 274.06 289.21 246.4 299.97 232.52 305.37"/><circle class="cls-3" cx="172.4" cy="267.41" r="35.94"/><path class="cls-4" d="M203.42,249.26a36,36,0,0,1-12.85,49.17,36.45,36.45,0,0,1-11.52,4.32,36,36,0,0,0-34.22-58.43,36.66,36.66,0,0,1,9.41-7.93A36,36,0,0,1,203.42,249.26Z"/><ellipse class="cls-5" cx="143.79" cy="241.92" rx="19.69" ry="7.19" transform="translate(-3.54 2.14) rotate(-0.84)"/><ellipse class="cls-5" cx="155.72" cy="222.05" rx="7.19" ry="19.69" transform="translate(-56.56 53.26) rotate(-16.47)"/><ellipse class="cls-5" cx="172.11" cy="230.18" rx="19.69" ry="7.19" transform="translate(-112.08 187.25) rotate(-44.62)"/><circle class="cls-3" cx="325.88" cy="272.91" r="35.94"/><path class="cls-4" d="M361.57,277.07a36,36,0,0,1-39.84,31.55,36.65,36.65,0,0,1-11.81-3.47,36,36,0,0,0,7.82-67.26,36,36,0,0,1,43.83,39.18Z"/><ellipse class="cls-5" cx="318.35" cy="235.34" rx="7.19" ry="19.69" transform="matrix(0.59, -0.81, 0.81, 0.59, -59.45, 353.64)"/><ellipse class="cls-5" cx="339.83" cy="226.65" rx="19.69" ry="7.19" transform="translate(8.47 465.5) rotate(-69.49)"/><ellipse class="cls-5" cx="348.04" cy="242.99" rx="19.69" ry="7.19" transform="translate(-29.22 48.44) rotate(-7.64)"/><path class="cls-9" d="M423.13,338.87v40.69a29.69,29.69,0,0,1-29.68,29.67H122.94a29.68,29.68,0,0,1-29.67-29.67V338.87Z"/><path class="cls-9" d="M486,288.34c0,26.91-23.9,51.34-62.87,69.43C381.2,377.25,321.83,389.4,256,389.4c-8.81,0-17.52-.21-26.08-.65-53.15-2.62-100.79-13.21-136.65-29C51.7,341.47,26,316.24,26,288.34Z"/><path class="cls-10" d="M253.84,409.23H122.94a29.68,29.68,0,0,1-29.67-29.67V359.75C51.7,341.47,26,316.24,26,288.34H174.15a256.4,256.4,0,0,0,20,50.53,212.63,212.63,0,0,0,35.76,49.88A168.63,168.63,0,0,0,253.84,409.23Z"/></svg>