<svg id="ICON" xmlns="http://www.w3.org/2000/svg" viewBox="0 0 512 512"><defs><style>.cls-1{fill:#8eca94;}.cls-2{fill:#dab977;}.cls-3{fill:#85473f;}.cls-4{fill:#a15546;}.cls-5{fill:#b18e8a;}.cls-6{fill:#76a6bf;}.cls-7{fill:#d4d8d9;}.cls-8{fill:#a3c9d5;}.cls-9{fill:#eaf1f3;}.cls-10{fill:#aaabac;}.cls-11{fill:#dc565e;}.cls-12{fill:#b14b5a;}.cls-13{fill:#67ab65;}.cls-14{fill:#484c55;}.cls-15{fill:#383b41;}</style></defs><title>Cooking</title><circle class="cls-1" cx="425.51" cy="297.65" r="33.48"/><circle class="cls-1" cx="368.61" cy="316.89" r="33.48"/><circle class="cls-1" cx="412.93" cy="354.74" r="33.48"/><circle class="cls-1" cx="330.53" cy="351.95" r="33.48"/><circle class="cls-1" cx="378.99" cy="394.3" r="33.48"/><circle class="cls-1" cx="345.08" cy="390.22" r="33.48"/><circle class="cls-1" cx="374.85" cy="362.81" r="33.48"/><rect class="cls-2" x="376.82" y="271.23" width="6.6" height="153.05" transform="translate(310.56 -162.72) rotate(39.79)"/><circle class="cls-1" cx="222.16" cy="261.74" r="33.48"/><circle class="cls-1" cx="234.14" cy="320.6" r="33.48"/><circle class="cls-1" cx="277.23" cy="281.35" r="33.48"/><circle class="cls-1" cx="264.16" cy="362.76" r="33.48"/><circle class="cls-1" cx="312.24" cy="319.97" r="33.48"/><circle class="cls-1" cx="303.95" cy="353.1" r="33.48"/><circle class="cls-1" cx="280.48" cy="320.14" r="33.48"/><rect class="cls-2" x="262.89" y="236.51" width="6.6" height="153.05" transform="translate(-142 265.86) rotate(-43.03)"/><path class="cls-3" d="M48.27,339.86H360.55a0,0,0,0,1,0,0v27.51a28.48,28.48,0,0,1-28.48,28.48H76.75a28.48,28.48,0,0,1-28.48-28.48V339.86A0,0,0,0,1,48.27,339.86Z" transform="matrix(0.99, 0.17, -0.17, 0.99, 64.62, -29.08)"/><ellipse class="cls-4" cx="183.46" cy="335.89" rx="40.58" ry="130.12" transform="translate(-178.45 460.38) rotate(-80.34)"/><ellipse class="cls-4" cx="272.44" cy="347.68" rx="28.84" ry="92.46" transform="translate(-116.02 557.92) rotate(-80.34)"/><rect class="cls-3" x="146.46" y="299" width="10.35" height="62.93" rx="5.18" transform="translate(222.9 -26.07) rotate(35.95)"/><rect class="cls-3" x="194.86" y="307.24" width="10.35" height="62.93" rx="5.18" transform="translate(236.96 -52.92) rotate(35.95)"/><ellipse class="cls-5" cx="183.98" cy="332.05" rx="7.39" ry="37.33" transform="translate(-174.23 457.71) rotate(-80.34)"/><rect class="cls-3" x="103.28" y="288.3" width="10.35" height="62.93" rx="5.18" transform="translate(208.4 -2.76) rotate(35.95)"/><rect class="cls-3" x="237.56" y="314.51" width="10.35" height="62.93" rx="5.18" transform="translate(249.36 -76.61) rotate(35.95)"/><rect class="cls-3" x="283.57" y="331.72" width="7.18" height="43.63" rx="3.59" transform="translate(262.26 -101.25) rotate(35.95)"/><rect class="cls-3" x="319.64" y="337.86" width="7.18" height="43.63" rx="3.59" transform="translate(272.74 -121.25) rotate(35.95)"/><rect class="cls-6" x="166.19" y="126.92" width="44.13" height="17.93" transform="translate(-42.52 110.47) rotate(-29.54)"/><rect class="cls-7" x="126.25" y="30.4" width="66.19" height="108.93" rx="21.37" transform="translate(-21.13 89.59) rotate(-29.54)"/><rect class="cls-8" x="164.16" y="142.47" width="66.19" height="18.58" rx="9.29" transform="translate(-49.18 116.98) rotate(-29.54)"/><rect class="cls-9" x="139.34" y="60.28" width="12.41" height="64.81" rx="6.21" transform="translate(-26.77 83.8) rotate(-29.54)"/><rect class="cls-9" x="166.94" y="44.64" width="12.41" height="64.81" rx="6.21" transform="translate(-15.48 95.38) rotate(-29.54)"/><circle class="cls-10" cx="207.24" cy="207.74" r="5.06"/><circle class="cls-10" cx="227.26" cy="187.88" r="5.06"/><circle class="cls-10" cx="232.31" cy="229.25" r="5.06"/><circle class="cls-10" cx="227.26" cy="273.36" r="5.06"/><circle class="cls-10" cx="251.45" cy="251.31" r="5.06"/><circle class="cls-11" cx="379.15" cy="356.87" r="36.62"/><path class="cls-12" d="M415.69,359.28a36.64,36.64,0,0,1-38.93,34.14,37.17,37.17,0,0,1-12.2-2.93,36.65,36.65,0,0,0,4.52-68.85,37.11,37.11,0,0,1,12.47-1.32A36.65,36.65,0,0,1,415.69,359.28Z"/><ellipse class="cls-13" cx="369.57" cy="319.01" rx="7.33" ry="20.06" transform="translate(-99.88 453.05) rotate(-56.74)"/><ellipse class="cls-13" cx="390.99" cy="309.07" rx="20.06" ry="7.33" transform="translate(-22.02 588.03) rotate(-72.36)"/><ellipse class="cls-13" cx="400.17" cy="325.29" rx="20.06" ry="7.33" transform="matrix(0.98, -0.18, 0.18, 0.98, -52.66, 78.51)"/><path class="cls-14" d="M405.67,420.23v36.35a26.51,26.51,0,0,1-26.5,26.5H137.51A26.52,26.52,0,0,1,111,456.58V420.23Z"/><path class="cls-14" d="M461.84,375.09c0,24-21.35,45.86-56.17,62-37.45,17.41-90.49,28.27-149.3,28.27-7.87,0-15.65-.19-23.29-.59-47.49-2.34-90-11.8-122.08-25.9C73.86,422.56,50.91,400,50.91,375.09Z"/><path class="cls-15" d="M254.45,483.08H137.51A26.52,26.52,0,0,1,111,456.58V438.89C73.86,422.56,50.91,400,50.91,375.09H183.25a228.71,228.71,0,0,0,17.88,45.14,189.93,189.93,0,0,0,32,44.56A149.23,149.23,0,0,0,254.45,483.08Z"/></svg>