<svg id="ICON" xmlns="http://www.w3.org/2000/svg" viewBox="0 0 512 512"><defs><style>.cls-1{fill:#76b9f8;}.cls-2{fill:#a14b64;}.cls-3{fill:#89415a;}.cls-4{fill:#cda585;}.cls-5{fill:#2a3342;}.cls-6{fill:#e6b992;}.cls-7{fill:#aaabac;}.cls-8{fill:#bdc0c2;}.cls-9{fill:#cdcecf;}.cls-10{fill:#e8e0e3;}.cls-11{fill:#3f4d5f;}.cls-12{fill:#1d222a;}</style></defs><title>Cooking</title><path class="cls-1" d="M420.29,365.58h0a6.49,6.49,0,0,1,6.49,6.49v82.88a0,0,0,0,1,0,0h-13a0,0,0,0,1,0,0V372.07A6.49,6.49,0,0,1,420.29,365.58Z" transform="translate(840.58 820.52) rotate(-180)"/><path class="cls-1" d="M443.84,328.4V346a23.55,23.55,0,1,1-47.1,0V328.4a12.64,12.64,0,0,1,3.34-8.59,2.67,2.67,0,0,1,4.58,1.88v27.53a5.3,5.3,0,0,0,10.59,0V320.41a4.67,4.67,0,0,1,4.67-4.67h0a4.67,4.67,0,0,1,4.68,4.67v28.81a5.29,5.29,0,0,0,10.58,0V321.8a3,3,0,0,1,5.1-2.22A12.6,12.6,0,0,1,443.84,328.4Z"/><rect class="cls-2" x="184.07" y="265.94" width="147.2" height="163.56" rx="46.96"/><ellipse class="cls-3" cx="257.68" cy="281.22" rx="33.91" ry="22.24"/><ellipse class="cls-4" cx="257.68" cy="258.97" rx="26.46" ry="34.86"/><ellipse class="cls-5" cx="163.77" cy="172.79" rx="41.93" ry="46.68" transform="translate(-67.67 116.99) rotate(-32.98)"/><ellipse class="cls-5" cx="347.06" cy="178.78" rx="41.93" ry="46.68" transform="translate(-41.39 217.73) rotate(-32.98)"/><ellipse class="cls-5" cx="319.37" cy="98.89" rx="59.19" ry="81.09" transform="translate(24.23 255.95) rotate(-45.22)"/><ellipse class="cls-4" cx="359.09" cy="172.79" rx="14.94" ry="16"/><ellipse class="cls-4" cx="160.87" cy="172.79" rx="14.94" ry="16"/><circle class="cls-6" cx="259.98" cy="160.61" r="96.21"/><ellipse class="cls-5" cx="224" cy="98.89" rx="94.09" ry="63.5" transform="translate(-17.74 137.87) rotate(-32.98)"/><path class="cls-2" d="M150.37,268h41.69a0,0,0,0,1,0,0v97.1a41.69,41.69,0,0,1-41.69,41.69h0a0,0,0,0,1,0,0V268A0,0,0,0,1,150.37,268Z" transform="translate(238.71 709.74) rotate(-163.37)"/><rect class="cls-2" x="107.45" y="378.45" width="43.67" height="104.45" rx="20.94" transform="translate(310.07 18.95) rotate(40.41)"/><ellipse class="cls-1" cx="91.71" cy="346.75" rx="24.37" ry="33.67"/><rect class="cls-1" x="85.22" y="368.24" width="12.98" height="89.37"/><circle class="cls-6" cx="91.71" cy="458.25" r="28.75"/><rect class="cls-4" x="82.09" y="418.27" width="19.24" height="30.79" rx="9.62" transform="translate(518.56 314.16) rotate(86.3)"/><path class="cls-2" d="M323.79,267.38h0a41.69,41.69,0,0,1,41.69,41.69v97.1a0,0,0,0,1,0,0H323.79a0,0,0,0,1,0,0V267.38A0,0,0,0,1,323.79,267.38Z" transform="translate(-81.96 112.71) rotate(-16.63)"/><rect class="cls-2" x="364.73" y="377.81" width="43.67" height="104.45" rx="20.94" transform="translate(959.68 506.83) rotate(139.59)"/><circle class="cls-6" cx="420.29" cy="457.6" r="28.75"/><rect class="cls-4" x="410.67" y="417.62" width="19.24" height="30.79" rx="9.62" transform="matrix(-0.06, 1, -1, -0.06, 879.52, 41.54)"/><circle class="cls-5" cx="298.47" cy="178.78" r="11.55"/><circle class="cls-5" cx="221.5" cy="178.78" r="11.55"/><rect class="cls-7" x="242.88" y="310" width="29.59" height="29.83" rx="14.8"/><path class="cls-8" d="M386.6,457.16H128.75A118.3,118.3,0,0,1,247.09,338.82h21.17A118.32,118.32,0,0,1,386.6,457.16Z"/><path class="cls-9" d="M386.6,457.16H306.13c-5-60.42-31.67-100.56-46.26-118.34h8.39A118.32,118.32,0,0,1,386.6,457.16Z"/><path class="cls-7" d="M181.05,358.94a336.06,336.06,0,0,0-19.78,98.22H128.75A118.27,118.27,0,0,1,181.05,358.94Z"/><rect class="cls-10" x="353.25" y="70.12" width="15.39" height="45.33" rx="7.7" transform="translate(8.96 215.25) rotate(-33.6)"/><path class="cls-5" d="M411.13,456.51A23.11,23.11,0,0,1,388,479.6H127.31a23.11,23.11,0,0,1-23.09-23.09Z"/><path class="cls-11" d="M411.13,456.51A23.11,23.11,0,0,1,388,479.6H374.57l11.55-23.09Z"/><path class="cls-12" d="M163.49,479.6H127.31a23.11,23.11,0,0,1-23.09-23.09h43Z"/></svg>